PathFileType	4	(X/Y/Z)	C:\Users\WrightLab\Desktop\Jo\P3_6.trc
DataRate	CameraRate	NumFrames	NumMarkers	Units	OrigDataRate	OrigDataStartFrame	OrigNumFrames
100.00	100.00	       37	19	mm	100.00	464	       530
Frame#	Time	Headset_Front			Headset_Back			Headset_Left			Headset_Right			Left_Shoulder			Right_Shoulder			Sternum			C7			Left Elbow			Right Elbow			Left Wrist			Right Wrist			Left ASIS			Right ASIS			S2			Left Knee			Right Knee			Left Ankle			Right Ankle			
		X1	Y1	Z1	X2	Y2	Z2	X3	Y3	Z3	X4	Y4	Z4	X5	Y5	Z5	X6	Y6	Z6	X7	Y7	Z7	X8	Y8	Z8	X9	Y9	Z9	X10	Y10	Z10	X11	Y11	Z11	X12	Y12	Z12	X13	Y13	Z13	X14	Y14	Z14	X15	Y15	Z15	X16	Y16	Z16	X17	Y17	Z17	X18	Y18	Z18	X19	Y19	Z19	

464	4.630													-845.83295	1307.47791	-1301.50623	-525.17297	1322.13550	-1146.70398							-909.47308	974.70813	-1324.94629	-458.85513	984.73193	-1078.26917				-384.10016	792.53418	-1184.66162							-696.76874	911.57428	-1112.23096				-463.86295	421.90173	-1313.16248				-573.68152	180.80267	-1100.04761	
465	4.640													-843.38702	1307.99475	-1306.56702	-524.57050	1322.25439	-1150.87219							-906.67743	975.08502	-1335.52258	-459.02444	984.20459	-1080.81873				-382.82516	792.52893	-1185.05444							-696.53424	912.30249	-1118.16418				-457.69995	424.57428	-1320.31274				-569.46405	174.76543	-1117.38843	
466	4.650													-840.13263	1307.31140	-1313.28296	-523.86237	1321.18799	-1151.37512							-903.86462	975.91766	-1346.32886	-458.75629	985.18365	-1083.42798				-380.50571	793.38568	-1185.72864							-695.82300	912.33691	-1122.60303				-454.60480	425.01202	-1330.77258				-564.51819	168.01988	-1134.75623	
467	4.660													-837.86005	1307.92993	-1319.27527	-523.49109	1321.15137	-1157.88110							-901.28528	976.03156	-1355.30627	-457.91217	986.04675	-1084.85400				-378.81152	794.03918	-1188.86902							-695.15741	912.78253	-1128.86658				-449.83975	427.89383	-1335.99231				-560.69788	159.82384	-1156.99597	
468	4.670													-835.02966	1308.18066	-1327.93982	-522.75952	1321.93164	-1163.85339							-897.62415	976.30536	-1366.59778	-458.59070	985.68073	-1087.94568				-377.69775	794.91187	-1188.97021							-694.17389	913.38049	-1134.99060				-446.81772	428.97891	-1342.08521				-554.29822	153.46466	-1172.72644	
469	4.680													-830.88232	1307.98474	-1344.54187	-522.11346	1321.98584	-1169.98523							-894.49316	976.49823	-1376.80957	-458.51370	986.55115	-1088.92883				-375.38354	796.09924	-1192.48718							-693.01801	913.24628	-1141.33777				-442.76099	429.86316	-1346.74561				-548.01025	146.86583	-1190.08191	
470	4.690													-828.23926	1308.29431	-1353.14954	-521.62292	1322.07837	-1176.01001							-891.42395	976.41602	-1386.63123	-459.25101	985.93182	-1095.08679				-373.04724	797.01660	-1195.45398							-692.92133	912.66266	-1147.04456				-440.38937	430.83337	-1352.32434				-541.53113	139.96817	-1207.41858	
471	4.700													-824.51587	1306.70276	-1358.94873	-519.86951	1322.15283	-1174.26306							-886.88953	976.90460	-1399.03198	-458.49976	986.64734	-1095.76990				-370.74319	797.30688	-1197.11487							-691.51624	912.40594	-1152.67456				-436.78821	431.57053	-1360.09949				-536.61877	131.05786	-1225.73853	
472	4.710													-820.82697	1307.84399	-1370.41418	-519.04041	1322.85522	-1182.44531							-883.04541	977.73151	-1411.00696	-459.00412	986.08368	-1100.25928				-368.62582	797.72974	-1199.26831							-690.18848	912.76239	-1158.17798				-434.44305	430.07611	-1362.65723				-530.33923	122.31310	-1247.58838	
473	4.720													-816.72382	1307.46350	-1378.92627	-518.03424	1322.29333	-1184.90759							-879.05469	977.06787	-1419.78809	-458.11282	986.82458	-1100.19238				-365.67731	798.51794	-1203.01611							-688.81262	912.71826	-1163.80615				-431.80453	429.26456	-1365.89063				-522.60229	116.02206	-1263.77209	
474	4.730													-814.25421	1306.20728	-1383.02429	-516.80750	1321.81323	-1189.11060							-874.87103	976.61676	-1428.99829	-457.26486	986.75824	-1104.26746				-363.52417	799.05725	-1205.53540							-688.11108	912.75421	-1169.25220				-430.23422	427.92017	-1368.26221				-515.78961	110.38834	-1281.63086	
475	4.740													-810.45825	1307.48547	-1394.54053	-515.42645	1321.42773	-1194.30811							-870.42975	977.19849	-1440.17700	-456.70084	986.50983	-1107.33618				-361.19727	799.75775	-1208.54456							-687.26141	912.50311	-1175.16992				-427.40155	426.65427	-1369.85693				-508.08517	102.72589	-1303.41638	
476	4.750													-806.75916	1306.56946	-1400.79077	-514.47150	1321.16406	-1198.60278							-865.75293	977.20959	-1450.00488	-456.22366	986.33472	-1110.38428				-358.25076	800.14282	-1210.90601							-684.78619	911.89374	-1181.60901				-426.72922	425.14194	-1370.27686				-499.97101	96.78030	-1319.04932	
477	4.760													-802.97900	1305.69373	-1406.82043	-512.77386	1320.86780	-1202.37268							-861.02924	976.33734	-1457.89343	-455.28674	984.97205	-1116.01331				-356.01569	800.20264	-1211.82397							-683.26581	911.50098	-1187.12854				-426.13831	423.67252	-1370.42017				-490.70599	92.86263	-1335.45239	
478	4.770													-798.57629	1306.29175	-1416.74634	-511.06467	1319.93164	-1206.57825							-856.12988	976.20825	-1467.22217	-453.38895	985.17273	-1117.04712				-352.46057	800.08612	-1216.70557							-682.01215	910.91302	-1193.17981				-426.65747	421.99588	-1370.06055				-482.25546	88.45687	-1353.29639	
479	4.780													-794.08459	1305.95508	-1424.68640	-509.13080	1319.27588	-1211.30664							-850.76025	976.44183	-1476.87256	-452.92905	984.47888	-1120.75293				-350.05258	799.53845	-1215.95410							-679.54095	910.27435	-1198.40137				-426.53000	420.48959	-1371.07776				-472.28558	84.47802	-1369.41174	
480	4.790													-790.86615	1304.37158	-1428.04932	-508.16769	1318.62561	-1215.06714							-845.37531	975.43781	-1484.13477	-450.27252	983.72589	-1124.43225				-346.29288	799.56403	-1220.09436							-677.60370	910.16284	-1205.09827				-427.67764	417.64236	-1371.81580				-463.47589	81.04399	-1386.64087	
481	4.800													-786.93970	1303.19995	-1433.20081	-505.77777	1317.35046	-1218.91333							-840.07617	974.40216	-1491.31946	-448.70435	982.32666	-1128.65320				-343.08530	798.11090	-1220.34216							-675.72833	909.03998	-1211.00330				-428.71295	415.73016	-1376.60315				-453.67395	80.09061	-1397.52283	
482	4.810													-782.75647	1304.60986	-1444.07520	-504.18054	1316.26013	-1222.86389							-834.18176	974.30481	-1500.16479	-447.57346	981.64276	-1131.00793				-340.06873	797.96686	-1223.79211							-673.93555	908.82013	-1216.55176				-428.78815	414.04749	-1376.44421				-444.39767	81.10487	-1409.28760	
483	4.820													-778.56946	1303.72058	-1449.68347	-501.77768	1315.40247	-1226.05884							-828.14294	974.63531	-1510.02100	-445.38583	980.39905	-1134.84680				-336.43436	798.07898	-1228.22498							-670.86023	907.80206	-1223.12378				-429.21008	412.69604	-1376.58643				-436.59473	79.85239	-1425.36218	
484	4.830													-774.00635	1302.13135	-1454.37231	-499.69012	1314.24060	-1230.10327							-822.13904	973.17542	-1516.35815	-444.83270	979.42969	-1138.83313				-333.57578	796.42761	-1230.49219							-668.55615	907.16479	-1228.75085				-429.77390	410.38467	-1377.76172				-428.37070	80.46704	-1432.52771	
485	4.840													-769.68396	1301.19434	-1459.96021	-497.57059	1313.34839	-1233.40540							-816.19440	972.12451	-1523.54688	-441.69357	977.04169	-1143.50476				-330.19183	796.33295	-1234.70813							-665.77844	905.53851	-1235.10364				-429.73672	408.89413	-1380.28894				-421.90848	82.15407	-1438.63367	
486	4.850													-764.16962	1302.32959	-1471.40881	-495.10922	1311.76086	-1236.62964							-809.69995	971.61694	-1531.53491	-440.08514	975.43030	-1147.39990				-326.70563	794.75043	-1234.98389							-663.41333	905.10181	-1240.32666				-427.99521	408.45865	-1382.56152				-414.90369	81.30466	-1446.42627	
487	4.860													-759.65863	1301.37292	-1476.83997	-492.84573	1311.12646	-1240.42090							-803.16553	971.40033	-1540.05933	-438.37228	974.32697	-1151.08032				-323.67636	793.61639	-1237.41296							-659.69489	903.94562	-1246.74329				-425.71469	406.37167	-1383.39331				-411.69904	79.51328	-1456.43054	
488	4.870													-755.04242	1300.42004	-1482.14038	-490.28516	1309.61755	-1243.52747							-796.56256	970.39771	-1546.85376	-436.23752	974.20166	-1155.17407				-320.64297	792.47821	-1239.85938							-657.41199	904.11688	-1252.99353				-424.73898	405.01031	-1388.19885				-407.28058	79.27723	-1457.35901	
489	4.880													-749.99567	1298.79321	-1486.30872	-487.92184	1308.91675	-1247.12317							-790.10175	969.61554	-1554.16211	-433.44388	972.32825	-1157.92615				-317.42212	792.35907	-1245.48792							-654.28613	902.38214	-1258.89575				-421.53961	403.49594	-1392.21594				-404.67215	76.42451	-1463.23389	
490	4.890													-744.87372	1297.10742	-1490.55908	-485.25772	1307.33972	-1249.50354							-783.57001	968.31580	-1560.28992	-431.39435	970.56000	-1161.69421				-313.82712	791.85712	-1249.55188							-651.43463	901.74591	-1266.42090				-418.35352	401.92032	-1395.41919				-402.70023	75.85313	-1459.09863	
491	4.900													-739.58478	1298.19788	-1500.61682	-482.24527	1306.15442	-1252.20801							-776.68469	967.94073	-1568.18616	-429.75418	969.63879	-1166.29041													-648.15607	900.56775	-1272.04810				-413.93387	400.36594	-1401.35828				-402.84891	71.72453	-1461.35950	
492	4.910													-733.88623	1297.17163	-1506.70813	-480.25394	1304.96204	-1255.43042							-769.91187	967.54089	-1576.02649	-427.98975	968.54712	-1169.84338													-645.20361	899.02484	-1277.75037				-409.86725	398.88678	-1404.97278				-402.09048	69.60751	-1460.36206	
493	4.920													-728.82874	1296.12903	-1511.81348	-477.30438	1303.56567	-1258.26270							-762.85052	966.03290	-1581.72302	-426.07324	966.01031	-1174.22083													-641.89966	896.60663	-1284.95288				-405.40897	396.96902	-1407.14404				-400.48602	67.66493	-1461.70581	
494	4.930													-723.36285	1294.39172	-1515.82263	-475.19199	1302.40771	-1261.07874							-756.02527	965.25513	-1589.06445	-425.25372	965.08698	-1176.08276													-639.30664	896.10205	-1291.31494				-401.47696	396.66968	-1409.32251				-397.13388	66.09651	-1467.75659	
495	4.940													-717.84271	1292.63391	-1519.83496	-472.06717	1300.76990	-1263.53894										-422.26468	962.29602	-1180.25305													-636.55078	894.75500	-1298.43127				-398.34436	393.64957	-1418.21057				-395.46716	65.50986	-1468.96387	
496	4.950													-711.95111	1292.33020	-1527.15588	-469.34781	1299.30127	-1265.70313										-418.92471	960.62750	-1183.52649													-634.14307	892.93182	-1303.98328				-393.50629	394.67377	-1415.44910				-392.73730	66.03250	-1469.42566	
497	4.960																-467.12283	1298.33057	-1268.25171										-417.87494	960.09442	-1187.62952													-630.54285	892.90668	-1311.41760				-389.44815	396.91312	-1419.40161				-390.68344	64.34969	-1471.27551	
498	4.970																-464.38364	1297.36694	-1270.92188										-414.55136	957.82495	-1190.57910													-627.71729	892.05035	-1317.42773				-385.60623	393.33563	-1434.37866				-389.91074	65.20824	-1472.07031	
499	4.980																-462.19092	1296.84839	-1269.97656										-413.47757	956.40491	-1193.70166													-624.48700	891.98322	-1324.47791				-379.48752	397.89307	-1435.24609				-386.94412	64.69214	-1474.20703	
500	4.990																-459.99957	1297.33313	-1274.74609										-410.71606	956.07617	-1197.04297													-620.80017	891.24683	-1330.92041				-374.47379	396.64084	-1445.63269				-385.02393	64.24185	-1476.95117	
